<svg width="23" height="23" viewBox="0 0 23 23" fill="none" xmlns="http://www.w3.org/2000/svg">
<path d="M22.8226 21.9662C22.9362 22.0798 23 22.2338 23 22.3944C23 22.555 22.9362 22.7091 22.8226 22.8226C22.7091 22.9362 22.555 23 22.3944 23C22.2338 23 22.0798 22.9362 21.9662 22.8226L11.5 12.3564L1.03379 22.8226C0.920225 22.9362 0.766192 23 0.605582 23C0.444972 23 0.29094 22.9362 0.177371 22.8226C0.0638024 22.7091 3.16601e-09 22.555 0 22.3944C-3.16601e-09 22.2338 0.0638019 22.0798 0.177371 21.9662L10.6436 11.5L0.177371 1.03379C0.0638019 0.920225 0 0.766192 0 0.605582C0 0.444972 0.0638019 0.290939 0.177371 0.177371C0.290939 0.0638019 0.444972 0 0.605582 0C0.766192 0 0.920225 0.0638019 1.03379 0.177371L11.5 10.6436L21.9662 0.177371C22.0224 0.121137 22.0892 0.0765303 22.1627 0.0460969C22.2361 0.0156636 22.3149 1.56765e-09 22.3944 0C22.4739 -1.56765e-09 22.5527 0.0156636 22.6262 0.0460969C22.6996 0.0765302 22.7664 0.121137 22.8226 0.177371C22.8789 0.233604 22.9235 0.300363 22.9539 0.373836C22.9843 0.447308 23 0.526056 23 0.605582C23 0.685108 22.9843 0.763856 22.9539 0.837328C22.9235 0.910801 22.8789 0.97756 22.8226 1.03379L12.3564 11.5L22.8226 21.9662Z" fill="white"/>
</svg>
