<svg width="15" height="15" viewBox="0 0 15 15" fill="none" xmlns="http://www.w3.org/2000/svg">
<mask id="path-1-inside-1_37_330" fill="white">
<path d="M5.86957 14.6739C5.86957 14.7604 5.83521 14.8433 5.77406 14.9045C5.7129 14.9656 5.62996 15 5.54348 15H0.978261C0.71881 15 0.469985 14.8969 0.286526 14.7135C0.103066 14.53 0 14.2812 0 14.0217V0.978261C0 0.71881 0.103066 0.469985 0.286526 0.286526C0.469985 0.103066 0.71881 0 0.978261 0H5.54348C5.62996 0 5.7129 0.0343556 5.77406 0.0955087C5.83521 0.156662 5.86957 0.239603 5.86957 0.326087C5.86957 0.412571 5.83521 0.495512 5.77406 0.556665C5.7129 0.617818 5.62996 0.652174 5.54348 0.652174H0.978261C0.891777 0.652174 0.808836 0.68653 0.747683 0.747683C0.686529 0.808836 0.652174 0.891777 0.652174 0.978261V14.0217C0.652174 14.1082 0.686529 14.1912 0.747683 14.2523C0.808836 14.3135 0.891777 14.3478 0.978261 14.3478H5.54348C5.62996 14.3478 5.7129 14.3822 5.77406 14.4433C5.83521 14.5045 5.86957 14.5874 5.86957 14.6739ZM14.9046 7.26929L11.6437 4.00842C11.5826 3.94724 11.4996 3.91286 11.413 3.91286C11.3265 3.91286 11.2435 3.94724 11.1823 4.00842C11.1211 4.06961 11.0868 4.1526 11.0868 4.23913C11.0868 4.32566 11.1211 4.40865 11.1823 4.46984L13.8864 7.17391H5.54348C5.45699 7.17391 5.37405 7.20827 5.3129 7.26942C5.25175 7.33057 5.21739 7.41352 5.21739 7.5C5.21739 7.58648 5.25175 7.66943 5.3129 7.73058C5.37405 7.79173 5.45699 7.82609 5.54348 7.82609H13.8864L11.1823 10.5302C11.1211 10.5914 11.0868 10.6743 11.0868 10.7609C11.0868 10.8474 11.1211 10.9304 11.1823 10.9916C11.2435 11.0528 11.3265 11.0871 11.413 11.0871C11.4996 11.0871 11.5826 11.0528 11.6437 10.9916L14.9046 7.73071C14.9349 7.70042 14.959 7.66446 14.9754 7.62487C14.9918 7.58529 15.0003 7.54285 15.0003 7.5C15.0003 7.45715 14.9918 7.41471 14.9754 7.37513C14.959 7.33554 14.9349 7.29958 14.9046 7.26929Z"/>
</mask>
<path d="M5.86957 14.6739C5.86957 14.7604 5.83521 14.8433 5.77406 14.9045C5.7129 14.9656 5.62996 15 5.54348 15H0.978261C0.71881 15 0.469985 14.8969 0.286526 14.7135C0.103066 14.53 0 14.2812 0 14.0217V0.978261C0 0.71881 0.103066 0.469985 0.286526 0.286526C0.469985 0.103066 0.71881 0 0.978261 0H5.54348C5.62996 0 5.7129 0.0343556 5.77406 0.0955087C5.83521 0.156662 5.86957 0.239603 5.86957 0.326087C5.86957 0.412571 5.83521 0.495512 5.77406 0.556665C5.7129 0.617818 5.62996 0.652174 5.54348 0.652174H0.978261C0.891777 0.652174 0.808836 0.68653 0.747683 0.747683C0.686529 0.808836 0.652174 0.891777 0.652174 0.978261V14.0217C0.652174 14.1082 0.686529 14.1912 0.747683 14.2523C0.808836 14.3135 0.891777 14.3478 0.978261 14.3478H5.54348C5.62996 14.3478 5.7129 14.3822 5.77406 14.4433C5.83521 14.5045 5.86957 14.5874 5.86957 14.6739ZM14.9046 7.26929L11.6437 4.00842C11.5826 3.94724 11.4996 3.91286 11.413 3.91286C11.3265 3.91286 11.2435 3.94724 11.1823 4.00842C11.1211 4.06961 11.0868 4.1526 11.0868 4.23913C11.0868 4.32566 11.1211 4.40865 11.1823 4.46984L13.8864 7.17391H5.54348C5.45699 7.17391 5.37405 7.20827 5.3129 7.26942C5.25175 7.33057 5.21739 7.41352 5.21739 7.5C5.21739 7.58648 5.25175 7.66943 5.3129 7.73058C5.37405 7.79173 5.45699 7.82609 5.54348 7.82609H13.8864L11.1823 10.5302C11.1211 10.5914 11.0868 10.6743 11.0868 10.7609C11.0868 10.8474 11.1211 10.9304 11.1823 10.9916C11.2435 11.0528 11.3265 11.0871 11.413 11.0871C11.4996 11.0871 11.5826 11.0528 11.6437 10.9916L14.9046 7.73071C14.9349 7.70042 14.959 7.66446 14.9754 7.62487C14.9918 7.58529 15.0003 7.54285 15.0003 7.5C15.0003 7.45715 14.9918 7.41471 14.9754 7.37513C14.959 7.33554 14.9349 7.29958 14.9046 7.26929Z" fill="white"/>
<path d="M0.978261 0V-1V0ZM14.9046 7.26929L14.1975 7.9764L14.1979 7.97679L14.9046 7.26929ZM11.6437 4.00842L12.3509 3.30132H12.3509L11.6437 4.00842ZM11.0868 4.23913H12.0868H11.0868ZM11.1823 4.46984L10.4752 5.17694L11.1823 4.46984ZM13.8864 7.17391V8.17391H16.3006L14.5935 6.46681L13.8864 7.17391ZM13.8864 7.82609L14.5935 8.53319L16.3006 6.82609H13.8864V7.82609ZM11.1823 10.5302L10.4752 9.82306L11.1823 10.5302ZM11.0868 10.7609H12.0868H11.0868ZM11.413 11.0871V10.0871V11.0871ZM11.6437 10.9916L12.3509 11.6987H12.3509L11.6437 10.9916ZM14.9046 7.73071L14.1979 7.02321L14.1975 7.0236L14.9046 7.73071ZM4.86957 14.6739C4.86957 14.4952 4.94056 14.3238 5.06695 14.1974L6.48116 15.6116C6.72985 15.3629 6.86957 15.0256 6.86957 14.6739H4.86957ZM5.06695 14.1974C5.19334 14.071 5.36475 14 5.54348 14V16C5.89518 16 6.23247 15.8603 6.48116 15.6116L5.06695 14.1974ZM5.54348 14H0.978261V16H5.54348V14ZM0.978261 14C0.984028 14 0.989557 14.0023 0.993633 14.0064L-0.420581 15.4206C-0.0495859 15.7916 0.453592 16 0.978261 16V14ZM0.993633 14.0064C0.997709 14.0104 1 14.016 1 14.0217H-1C-1 14.5464 -0.791577 15.0496 -0.420581 15.4206L0.993633 14.0064ZM1 14.0217V0.978261H-1V14.0217H1ZM1 0.978261C1 0.984026 0.99771 0.989555 0.993633 0.993633L-0.420581 -0.420581C-0.791577 -0.0495847 -1 0.453594 -1 0.978261H1ZM0.993633 0.993633C0.989555 0.99771 0.984026 1 0.978261 1V-1C0.453594 -1 -0.0495848 -0.791577 -0.420581 -0.420581L0.993633 0.993633ZM0.978261 1H5.54348V-1H0.978261V1ZM5.54348 1C5.36475 1 5.19333 0.928999 5.06695 0.802615L6.48116 -0.611598C6.23247 -0.860288 5.89518 -1 5.54348 -1V1ZM5.06695 0.802615C4.94057 0.676231 4.86957 0.504818 4.86957 0.326087H6.86957C6.86957 -0.0256114 6.72985 -0.362907 6.48116 -0.611598L5.06695 0.802615ZM4.86957 0.326087C4.86957 0.147356 4.94057 -0.0240571 5.06695 -0.150442L6.48116 1.26377C6.72985 1.01508 6.86957 0.677785 6.86957 0.326087H4.86957ZM5.06695 -0.150442C5.19333 -0.276825 5.36475 -0.347826 5.54348 -0.347826V1.65217C5.89518 1.65217 6.23247 1.51246 6.48116 1.26377L5.06695 -0.150442ZM5.54348 -0.347826H0.978261V1.65217H5.54348V-0.347826ZM0.978261 -0.347826C0.62656 -0.347826 0.289265 -0.208113 0.0405758 0.0405759L1.45479 1.45479C1.32841 1.58117 1.15699 1.65217 0.978261 1.65217V-0.347826ZM0.0405758 0.0405759C-0.208113 0.289265 -0.347826 0.62656 -0.347826 0.978261H1.65217C1.65217 1.15699 1.58117 1.32841 1.45479 1.45479L0.0405758 0.0405759ZM-0.347826 0.978261V14.0217H1.65217V0.978261H-0.347826ZM-0.347826 14.0217C-0.347826 14.3734 -0.208114 14.7107 0.0405758 14.9594L1.45479 13.5452C1.58117 13.6716 1.65217 13.843 1.65217 14.0217H-0.347826ZM0.0405758 14.9594C0.289267 15.2081 0.626562 15.3478 0.978261 15.3478V13.3478C1.15699 13.3478 1.32841 13.4188 1.45479 13.5452L0.0405758 14.9594ZM0.978261 15.3478H5.54348V13.3478H0.978261V15.3478ZM5.54348 15.3478C5.36475 15.3478 5.19334 15.2768 5.06695 15.1504L6.48116 13.7362C6.23247 13.4875 5.89518 13.3478 5.54348 13.3478V15.3478ZM5.06695 15.1504C4.94056 15.0241 4.86957 14.8526 4.86957 14.6739H6.86957C6.86957 14.3222 6.72985 13.9849 6.48116 13.7362L5.06695 15.1504ZM15.6117 6.56219L12.3509 3.30132L10.9366 4.71553L14.1975 7.9764L15.6117 6.56219ZM12.3509 3.30132C12.1021 3.05259 11.7648 2.91286 11.413 2.91286V4.91286C11.2344 4.91286 11.063 4.84188 10.9366 4.71553L12.3509 3.30132ZM11.413 2.91286C11.0613 2.91286 10.724 3.05259 10.4752 3.30132L11.8894 4.71553C11.7631 4.84188 11.5917 4.91286 11.413 4.91286V2.91286ZM10.4752 3.30132C10.2265 3.55004 10.0868 3.88738 10.0868 4.23913H12.0868C12.0868 4.41782 12.0158 4.58918 11.8894 4.71553L10.4752 3.30132ZM10.0868 4.23913C10.0868 4.59088 10.2265 4.92822 10.4752 5.17694L11.8894 3.76273C12.0158 3.88908 12.0868 4.06045 12.0868 4.23913H10.0868ZM10.4752 5.17694L13.1793 7.88102L14.5935 6.46681L11.8894 3.76273L10.4752 5.17694ZM13.8864 6.17391H5.54348V8.17391H13.8864V6.17391ZM5.54348 6.17391C5.19178 6.17391 4.85448 6.31362 4.60579 6.56231L6.02001 7.97653C5.89362 8.10291 5.72221 8.17391 5.54348 8.17391V6.17391ZM4.60579 6.56231C4.3571 6.81101 4.21739 7.1483 4.21739 7.5H6.21739C6.21739 7.67873 6.14639 7.85014 6.02001 7.97653L4.60579 6.56231ZM4.21739 7.5C4.21739 7.8517 4.3571 8.18899 4.60579 8.43769L6.02001 7.02347C6.14639 7.14986 6.21739 7.32127 6.21739 7.5H4.21739ZM4.60579 8.43769C4.85448 8.68638 5.19178 8.82609 5.54348 8.82609V6.82609C5.72221 6.82609 5.89362 6.89709 6.02001 7.02347L4.60579 8.43769ZM5.54348 8.82609H13.8864V6.82609H5.54348V8.82609ZM13.1793 7.11898L10.4752 9.82306L11.8894 11.2373L14.5935 8.53319L13.1793 7.11898ZM10.4752 9.82306C10.2265 10.0718 10.0868 10.4091 10.0868 10.7609H12.0868C12.0868 10.9396 12.0158 11.1109 11.8894 11.2373L10.4752 9.82306ZM10.0868 10.7609C10.0868 11.1126 10.2265 11.45 10.4752 11.6987L11.8894 10.2845C12.0158 10.4108 12.0868 10.5822 12.0868 10.7609H10.0868ZM10.4752 11.6987C10.724 11.9474 11.0613 12.0871 11.413 12.0871V10.0871C11.5917 10.0871 11.7631 10.1581 11.8894 10.2845L10.4752 11.6987ZM11.413 12.0871C11.7648 12.0871 12.1021 11.9474 12.3509 11.6987L10.9366 10.2845C11.063 10.1581 11.2344 10.0871 11.413 10.0871V12.0871ZM12.3509 11.6987L15.6117 8.43781L14.1975 7.0236L10.9366 10.2845L12.3509 11.6987ZM15.6113 8.43821C15.7346 8.31505 15.8324 8.1688 15.8992 8.00781L14.0516 7.24193C14.0855 7.16012 14.1353 7.08579 14.1979 7.02321L15.6113 8.43821ZM15.8992 8.00781C15.9659 7.84682 16.0003 7.67426 16.0003 7.5H14.0003C14.0003 7.41145 14.0177 7.32375 14.0516 7.24193L15.8992 8.00781ZM16.0003 7.5C16.0003 7.32574 15.9659 7.15318 15.8992 6.99219L14.0516 7.75807C14.0177 7.67625 14.0003 7.58855 14.0003 7.5H16.0003ZM15.8992 6.99219C15.8324 6.8312 15.7346 6.68495 15.6113 6.56179L14.1979 7.97679C14.1352 7.91421 14.0855 7.83988 14.0516 7.75807L15.8992 6.99219Z" fill="white" mask="url(#path-1-inside-1_37_330)"/>
</svg>
