<svg width="18" height="18" viewBox="0 0 18 18" fill="none" xmlns="http://www.w3.org/2000/svg">
<path d="M16.9303 16.4488L12.4474 11.966C13.7038 10.5838 14.3699 8.76514 14.3032 6.8985C14.2365 5.03185 13.4424 3.26531 12.0906 1.97635C10.7388 0.687404 8.93644 -0.0217226 7.06873 0.000507301C5.20102 0.0227372 3.41608 0.77456 2.09532 2.09532C0.77456 3.41608 0.0227372 5.20102 0.000507301 7.06873C-0.0217226 8.93644 0.687404 10.7388 1.97635 12.0906C3.26531 13.4424 5.03185 14.2365 6.8985 14.3032C8.76514 14.3699 10.5838 13.7038 11.966 12.4474L16.4488 16.9303C16.5127 16.9941 16.5993 17.03 16.6896 17.03C16.7798 17.03 16.8664 16.9941 16.9303 16.9303C16.9941 16.8664 17.03 16.7798 17.03 16.6896C17.03 16.5993 16.9941 16.5127 16.9303 16.4488ZM0.69755 7.1624C0.69755 5.88378 1.07671 4.63386 1.78707 3.57072C2.49744 2.50758 3.50711 1.67897 4.68841 1.18966C5.86971 0.700348 7.16958 0.572323 8.42363 0.82177C9.67769 1.07122 10.8296 1.68694 11.7337 2.59106C12.6379 3.49519 13.2536 4.64711 13.503 5.90117C13.7525 7.15523 13.6245 8.4551 13.1351 9.6364C12.6458 10.8177 11.8172 11.8274 10.7541 12.5377C9.69094 13.2481 8.44103 13.6273 7.1624 13.6273C5.44837 13.6255 3.80506 12.9438 2.59305 11.7318C1.38105 10.5198 0.699351 8.87644 0.69755 7.1624Z" fill="#9F9696"/>
</svg>
