<svg width="200" height="200" viewBox="0 0 200 200" fill="none" xmlns="http://www.w3.org/2000/svg">
<g clip-path="url(#clip0_833_779)">
<rect width="200" height="200" rx="20" fill="white"/>
<path d="M62.0918 61.9316V49.8555H76.9154L89.0553 61.9316H110.268L121.706 49.8555H136.721V61.9316H121.706L110.268 74.3271H89.0553L76.9154 61.9316H62.0918Z" fill="#BA2548"/>
<path d="M61.9639 86.467V74.3909H76.7874L88.9274 86.467H110.14L121.578 74.3909H136.593V86.467H121.578L110.14 98.8625H88.9274L76.7874 86.467H61.9639Z" fill="#BA2548"/>
<path d="M61.9639 111.003V98.9265H76.7874L88.9274 111.003H110.14L121.578 98.9265H136.593V111.003H121.578L110.14 123.398H88.9274L76.7874 111.003H61.9639Z" fill="#BA2548"/>
<path d="M61.9639 135.538V123.462H76.7874L88.9274 135.538H110.14L121.578 123.462H136.593V135.538H121.578L110.14 147.934H88.9274L76.7874 135.538H61.9639Z" fill="#BA2548"/>
<path d="M76.236 53.6694H61.9639V65.8437H76.7128L88.1242 77.9862H110.47L121.945 65.8437H136.694V53.6694H121.945L109.739 65.8437H88.9189L76.236 53.6694Z" fill="#BA2548" stroke="#1D1A21" stroke-width="0.27244"/>
<path d="M76.2995 78.0178H62.0273V90.1921H76.7763L88.1877 102.335H110.534L122.009 90.1921H136.758V78.0178H122.009L109.803 90.1921H88.9824L76.2995 78.0178Z" fill="#BA2548" stroke="#1D1A21" stroke-width="0.27244"/>
<path d="M76.364 102.366H62.0918V114.54H76.8408L88.2521 126.683H110.598L122.073 114.54H136.822V102.366H122.073L109.867 114.54H89.0468L76.364 102.366Z" fill="#BA2548" stroke="#1D1A21" stroke-width="0.27244"/>
<path d="M76.4274 126.715H62.1553V138.889H76.9042L88.3156 151.032H110.662L122.137 138.889H136.885V126.715H122.137L109.93 138.889H89.1103L76.4274 126.715Z" fill="#BA2548" stroke="#1D1A21" stroke-width="0.27244"/>
</g>
<defs>
<clipPath id="clip0_833_779">
<rect width="200" height="200" rx="20" fill="white"/>
</clipPath>
</defs>
</svg>
